<svg xmlns="http://www.w3.org/2000/svg" width="15.969" height="15" viewBox="0 0 15.969 15">
  <path d="M879.787,1270.77l-3.9-.28a0.208,0.208,0,0,1-.182-0.13l-1.484-3.56a1.311,1.311,0,0,0-2.415,0l-1.488,3.57a0.229,0.229,0,0,1-.182.13l-3.889.27a1.287,1.287,0,0,0-1.149.87,1.247,1.247,0,0,0,.387,1.39l3.011,2.46a0.206,0.206,0,0,1,.072.21l-0.918,3.7a1.249,1.249,0,0,0,.205,1.1,1.314,1.314,0,0,0,1.025.5,1.191,1.191,0,0,0,.687-0.21l3.29-2.01a0.187,0.187,0,0,1,.225,0l3.323,2.01a1.237,1.237,0,0,0,.693.21,1.291,1.291,0,0,0,1.237-1.59l-0.922-3.71a0.206,0.206,0,0,1,.072-0.21l3.056-2.46a1.26,1.26,0,0,0,.384-1.39A1.28,1.28,0,0,0,879.787,1270.77Zm0.25,1.65-3.049,2.46a0.985,0.985,0,0,0-.342,1.01l0.921,3.7a0.5,0.5,0,0,1-.1.44,0.436,0.436,0,0,1-.625.1l-3.336-2.02a0.994,0.994,0,0,0-.531-0.15,1,1,0,0,0-.534.15l-3.3,2.03a0.5,0.5,0,0,1-.644-0.12,0.452,0.452,0,0,1-.069-0.42l0.921-3.72a0.986,0.986,0,0,0-.338-1l-3-2.45a0.494,0.494,0,0,1,.3-0.87l3.9-.28a1,1,0,0,0,.863-0.62l1.487-3.56a0.509,0.509,0,0,1,.937,0l1.488,3.56a1,1,0,0,0,.862.62l3.9,0.28A0.491,0.491,0,0,1,880.037,1272.42Z" transform="translate(-865.031 -1266)"/>
</svg>
