<svg xmlns="http://www.w3.org/2000/svg" width="25.969" height="26" viewBox="0 0 25.969 26">
  <defs>
    <style>
      .cls-1 {
        fill: #bababa;
        fill-rule: evenodd;
      }
    </style>
  </defs>
  <path id="Dels-icon" class="cls-1" d="M516.427,265.577a3.006,3.006,0,1,0,2.988,3.006A3.006,3.006,0,0,0,516.427,265.577Zm0,4.809a1.8,1.8,0,1,1,1.793-1.8A1.8,1.8,0,0,1,516.427,270.386ZM520.012,262h-8.067a2.833,2.833,0,0,0-2.091.872l-11.981,11.993a3.006,3.006,0,0,0,0,4.238l8.007,8.026a3.019,3.019,0,0,0,4.243,0L522.1,275.075A2.877,2.877,0,0,0,523,273v-8A3.006,3.006,0,0,0,520.012,262Zm1.793,11a1.561,1.561,0,0,1-.538,1.2l-12.01,12.083a1.8,1.8,0,0,1-2.51,0l-8.037-8.026a1.84,1.84,0,0,1,0-2.554l11.981-11.993a1.752,1.752,0,0,1,1.254-.512h8.067a1.8,1.8,0,0,1,1.793,1.8v8h0Z" transform="translate(-497.031 -262)"/>
</svg>
