<svg xmlns="http://www.w3.org/2000/svg" width="29" height="8" viewBox="0 0 29 8">
  <defs>
    <style>
      .cls-1 {
        fill: #bababa;
        fill-rule: evenodd;
      }
    </style>
  </defs>
  <path id="More-icon" class="cls-1" d="M1402.74,273a3.872,3.872,0,1,0-3.87,4A3.938,3.938,0,0,0,1402.74,273Zm-6.38,0a2.511,2.511,0,1,1,2.51,2.589A2.557,2.557,0,0,1,1396.36,273Zm17.01,0a3.872,3.872,0,1,0-3.87,4A3.944,3.944,0,0,0,1413.37,273Zm-3.87,2.588a2.592,2.592,0,1,1,2.51-2.589A2.556,2.556,0,0,1,1409.5,275.59Zm10.63-6.59a4,4,0,1,0,3.87,4A3.938,3.938,0,0,0,1420.13,269Zm0,6.59a2.592,2.592,0,1,1,2.51-2.589A2.556,2.556,0,0,1,1420.13,275.59Z" transform="translate(-1395 -269)"/>
</svg>
