<svg xmlns="http://www.w3.org/2000/svg" width="44" height="20" viewBox="0 0 44 20">
  <defs>
    <style>
      .cls-1 {
        fill: #bababa;
        fill-rule: evenodd;
      }
    </style>
  </defs>
  <path id="Shoes-icon" class="cls-1" d="M621.29,279.325v-1.761a20.935,20.935,0,0,0-1.795-8.5,2.237,2.237,0,0,0-4.167.257l-0.376,1.281a2.819,2.819,0,0,1-2.707,1.985,2.85,2.85,0,0,1-2.119-.935l-1.591-1.766,0.574-1.67a2.228,2.228,0,0,0,.117-0.709v-0.265A2.278,2.278,0,0,0,606.919,265a2.366,2.366,0,0,0-1.383.448l-2.267,1.653c-0.2-.017-0.4-0.032-0.607-0.032a7.508,7.508,0,0,0-3.978,1.135l-3.794,2.371a26.219,26.219,0,0,1-9.507,3.615l-3.75.643a4.245,4.245,0,0,0-.738,8.225A33.95,33.95,0,0,0,592.239,285h27.632A2.1,2.1,0,0,0,622,282.931V282.4A7.09,7.09,0,0,0,621.29,279.325Zm-12.232-6.765a4.288,4.288,0,0,0,3.187,1.406,4.236,4.236,0,0,0,4.071-2.985l0.377-1.282a0.8,0.8,0,0,1,1.5-.091,19.591,19.591,0,0,1,1.681,7.956v1.3c-1.653.173-6.428,0.616-12.065,0.616-0.111,0-.208,0-0.317,0l-4.261-6.507a6.807,6.807,0,0,0,2.874-3.458,5.789,5.789,0,0,1,1.027.9Zm-9.372,1.775,2.073-.672c0.064-.021.122-0.051,0.185-0.074l3.887,5.936c-0.909.037-1.726,0.1-2.465,0.173Zm2.108,5.558c-0.694.1-1.348,0.208-1.988,0.317-0.244.042-.486,0.083-0.729,0.122l-3.088-4.8,2.3-.746Zm4.594-13.341a0.906,0.906,0,0,1,.531-0.173,0.876,0.876,0,0,1,.887.863v0.265a0.872,0.872,0,0,1-.044.273l-0.343,1a7.408,7.408,0,0,0-2.309-1.3Zm-10.731,5.183,3.795-2.371a6.038,6.038,0,0,1,5.379-.508,5.453,5.453,0,0,1-3.52,3.5l-8.417,2.726a5.457,5.457,0,0,1-3.639-.1l-0.446-.173A27.588,27.588,0,0,0,595.657,271.735Zm-13.776,4.456,3.749-.643c0.284-.048.564-0.109,0.845-0.166l2.253,0.876a6.9,6.9,0,0,0,4.614.132l1.262-.409,2.948,4.584a33.828,33.828,0,0,1-4.649.3c-5.211,0-11.489-1.909-13.383-2.527A2.932,2.932,0,0,1,581.881,276.191Zm38.7,6.74a0.7,0.7,0,0,1-.71.69H592.239a32.521,32.521,0,0,1-10.859-1.859,2.931,2.931,0,0,1-1.851-1.968,49.132,49.132,0,0,0,13.374,2.448,38.2,38.2,0,0,0,7.146-.674,41.113,41.113,0,0,1,7.757-.706,123.288,123.288,0,0,0,12.332-.635,5.73,5.73,0,0,1,.443,2.177v0.527Zm-19.162-13.1a0.69,0.69,0,1,1-.709.69A0.7,0.7,0,0,1,601.419,269.827Zm-3.548,1.38a0.69,0.69,0,1,1-.71.69A0.7,0.7,0,0,1,597.871,271.207Z" transform="translate(-578 -265)"/>
</svg>
