<svg xmlns="http://www.w3.org/2000/svg" width="17" height="28" viewBox="0 0 17 28">
  <defs>
    <style>
      .cls-1 {
        fill: #bababa;
        fill-rule: evenodd;
      }
    </style>
  </defs>
  <path id="Gadget-icon" class="cls-1" d="M956.333,261.561a0.665,0.665,0,1,0,.7.665A0.684,0.684,0,0,0,956.333,261.561ZM966.366,259H954.634A2.572,2.572,0,0,0,952,261.5v23a2.572,2.572,0,0,0,2.634,2.5h11.732A2.572,2.572,0,0,0,969,284.5v-23A2.573,2.573,0,0,0,966.366,259Zm1.3,25.5a1.269,1.269,0,0,1-1.3,1.233H954.634a1.269,1.269,0,0,1-1.3-1.233v-2.684h14.33V284.5Zm0-3.951h-14.33v-15.1h14.33v15.1Zm0-16.365h-14.33V261.5a1.269,1.269,0,0,1,1.3-1.233h11.732a1.269,1.269,0,0,1,1.3,1.233v2.684Zm-5.307-2.592h-3.716a0.634,0.634,0,1,0,0,1.267h3.716A0.634,0.634,0,1,0,962.358,261.592Zm-2.553,22.816h1.389a0.634,0.634,0,1,0,0-1.267h-1.389A0.634,0.634,0,1,0,959.805,284.408Z" transform="translate(-952 -259)"/>
</svg>
