<svg xmlns="http://www.w3.org/2000/svg" width="37" height="30" viewBox="0 0 37 30">
  <defs>
    <style>
      .cls-1 {
        fill: #bababa;
        fill-rule: evenodd;
      }
    </style>
  </defs>
  <path id="Helmet-icon" class="cls-1" d="M1221.75,270.7a2.517,2.517,0,1,0,2.52-2.61A2.569,2.569,0,0,0,1221.75,270.7Zm3.78,0a1.261,1.261,0,1,1-1.26-1.305A1.287,1.287,0,0,1,1225.53,270.7Zm-2.32,11.853a6.213,6.213,0,0,1-6.62-5.814,0.627,0.627,0,0,0-.68-0.6,0.653,0.653,0,0,0-.58.7,7.531,7.531,0,0,0,7.37,7.032c0.2,0,.41-0.008.61-0.027a0.645,0.645,0,0,0,.58-0.7A0.624,0.624,0,0,0,1223.21,282.548Zm24.67-7.969a2.636,2.636,0,0,0-.25-2.159l-6.08-9.983a2.38,2.38,0,0,0-3.19-.866l-0.29.169c-0.03-.024-0.06-0.053-0.09-0.073a11.96,11.96,0,0,0-1.09-1.009,15.906,15.906,0,0,0-18.71-1.161,13.593,13.593,0,0,0-6.41,8.21c-0.12.386-2.96,9.518,3.19,16.575,0.3,0.377,1.88,1.839,8.9,2.482,1.71,0.157,3.45.234,5.2,0.234a63.315,63.315,0,0,0,10.42-.882,41.031,41.031,0,0,0,6.91-1.641,0.642,0.642,0,0,0,.39-0.4c0.06-.186,1.51-4.588.08-7.885q-0.015-.038-0.03-0.072l-0.1-.162A2.3,2.3,0,0,0,1247.88,274.579Zm-2.2,8.769a42.216,42.216,0,0,1-6.4,1.48,59.955,59.955,0,0,1-15.31.636c-6.71-.613-8.02-1.988-8.02-1.988h0c-0.01-.019-0.03-0.038-0.04-0.055-5.67-6.483-2.97-15.215-2.93-15.345a12.325,12.325,0,0,1,5.85-7.463,14.68,14.68,0,0,1,17.27,1.062c0.37,0.308.64,0.565,0.81,0.733l-5.4,3.131a3.238,3.238,0,0,1-.84.334l-0.17.041a11.443,11.443,0,0,1-5.64-.022,4.14,4.14,0,0,0-4.27,1.714,4.32,4.32,0,0,0-.33.545,4.493,4.493,0,0,0-.06,4.056c0.03,0.047.04,0.095,0.07,0.141h0c0.07,0.135.14,0.271,0.23,0.413a10.134,10.134,0,0,0,1.36,1.834,11.034,11.034,0,0,0,5.34,3.227c0.13,0.033.28,0.077,0.44,0.123l0.11,0.033a20.389,20.389,0,0,0,6.13.928,32.483,32.483,0,0,0,11.67-2.459l0.18,0.312C1246.74,279.132,1245.96,282.363,1245.68,283.348Zm-12.12-5.761a19.333,19.333,0,0,1-5.47-.865l-0.43-.122c-0.05-.014-0.11-0.029-0.15-0.042a9.761,9.761,0,0,1-3.88-2.037,9.605,9.605,0,0,1-2.06-2.434c-0.07-.124-0.14-0.245-0.2-0.366a3.182,3.182,0,0,1,.23-3.341,2.346,2.346,0,0,1,.27-0.32c0.03-.032.06-0.061,0.09-0.091a2.24,2.24,0,0,1,.2-0.188c0.04-.031.08-0.059,0.12-0.088,0.07-.053.14-0.1,0.21-0.148,0.04-.024.08-0.049,0.12-0.071a2.089,2.089,0,0,1,.26-0.127c0.03-.014.06-0.03,0.09-0.042a2.494,2.494,0,0,1,.37-0.118c0.02,0,.05-0.008.07-0.013a3.033,3.033,0,0,1,.31-0.051c0.05,0,.09,0,0.13-0.007,0.08,0,.15,0,0.23,0a2.913,2.913,0,0,1,.54.057,16.945,16.945,0,0,0,2.22.333A11.459,11.459,0,0,0,1233.56,277.587Zm13.13-3.414a1.012,1.012,0,0,1-.58.656c-0.32.131-.62,0.24-0.93,0.359-0.43.165-.85,0.326-1.26,0.471-0.17.06-.33,0.113-0.5,0.169-0.41.14-.82,0.277-1.22,0.4-0.14.044-.28,0.082-0.42,0.124-0.41.118-.81,0.232-1.19,0.331-0.12.03-.23,0.054-0.35,0.082-0.4.1-.79,0.19-1.17,0.269-0.09.017-.17,0.031-0.25,0.048-0.27.052-.52,0.095-0.77,0.138a10.028,10.028,0,0,1-9.97-9.677,11.752,11.752,0,0,0,2.7-.355l0.17-.04a4.278,4.278,0,0,0,1.17-.468l6.16-3.567h0l0.68-.394a1.134,1.134,0,0,1,1.52.418l6.08,9.984A1.3,1.3,0,0,1,1246.69,274.173Z" transform="translate(-1211.03 -257)"/>
</svg>
