<svg xmlns="http://www.w3.org/2000/svg" width="37" height="28" viewBox="0 0 37 28">
  <path d="M863,309.822a0.829,0.829,0,0,0,.834.821h6.422l1.473,5.825a3.6,3.6,0,0,0-.036.49,1.065,1.065,0,0,0,.013.168l2.049,10.989a0.873,0.873,0,0,0,.028.112c0.268,0.8.849,2.542,2.442,2.992a3.57,3.57,0,0,0-.726,2.153A3.659,3.659,0,0,0,879.182,337a3.725,3.725,0,0,0,3.682-3.7,4.485,4.485,0,0,0-.642-2.119H889.9a4.494,4.494,0,0,0-.641,2.119,3.692,3.692,0,0,0,3.683,3.666,3.642,3.642,0,0,0,3.682-3.606,3.536,3.536,0,0,0-.736-2.156c0.845-.257,1.858-1,2.44-3a0.831,0.831,0,0,0,.024-0.1l1.639-10.977a1.855,1.855,0,0,0,.009-0.2,3.421,3.421,0,0,0-3.293-3.4H874.986a3.315,3.315,0,0,0-2.076.844l-1.2-4.7a0.867,0.867,0,0,0-.808-0.659h-7.072A0.828,0.828,0,0,0,863,309.822Zm16.182,25.536a1.985,1.985,0,1,1,2.015-1.985A2,2,0,0,1,879.182,335.358Zm13.76,0a1.985,1.985,0,1,1,2.015-1.985A2,2,0,0,1,892.942,335.358Zm-17.956-20.2h21.722a1.748,1.748,0,0,1,1.624,1.7l-1.621,10.818c-0.262.875-.756,1.852-1.643,1.852H877.035c-0.617,0-1.109-.245-1.649-1.842l-2.024-10.8a1.32,1.32,0,0,1,.034-0.228c0.006-.028.01-0.122,0.013-0.149A1.731,1.731,0,0,1,874.986,315.159Z" transform="translate(-863 -309)"/>
</svg>
