<svg height="19" width="19" xml:space="preserve" xmlns="http://www.w3.org/2000/svg"><path d="M8.44 7.25a1.393 1.393 0 0 0-.225.307l-.041-.041-.025.174c-.1.235-.135.493-.107.752l-.399 2.796 2.797-.399c.259.028.517-.007.752-.107l.174-.024-.041-.041c.109-.062.215-.133.307-.225l5.053-5.053-3.191-3.191L8.44 7.25zM18.183 1.568l-.87-.87c-.641-.641-1.637-.684-2.225-.097l-.797.797 3.191 3.191.797-.798c.588-.586.545-1.582-.096-2.223z"/><path d="M15 9.696V17H2V2h8.953L12.476.58c.162-.161.353-.221.555-.293.043-.119.104-.18.176-.287H0v19h17V7.928l-2 1.768z"/></svg>
