<svg xmlns="http://www.w3.org/2000/svg" width="18.44" height="18" viewBox="0 0 18.44 18">
  <path d="M1452.03,389.56a0.57,0.57,0,0,0-.58-0.56h-3.87a0.57,0.57,0,0,0-.58.56v3.768a0.57,0.57,0,0,0,.58.56h3.87a0.57,0.57,0,0,0,.58-0.56V389.56h0Zm6.71,0a0.57,0.57,0,0,0-.58-0.56h-3.87a0.57,0.57,0,0,0-.58.56v3.768a0.57,0.57,0,0,0,.58.56h3.87a0.57,0.57,0,0,0,.58-0.56V389.56Zm6.71,0a0.57,0.57,0,0,0-.58-0.56H1461a0.57,0.57,0,0,0-.58.56v3.768a0.57,0.57,0,0,0,.58.56h3.88a0.561,0.561,0,0,0,.57-0.56V389.56h0Zm-13.42,6.556a0.57,0.57,0,0,0-.58-0.559h-3.87a0.57,0.57,0,0,0-.58.559v3.767a0.57,0.57,0,0,0,.58.56h3.87a0.57,0.57,0,0,0,.58-0.56v-3.767h0Zm6.71,0a0.57,0.57,0,0,0-.58-0.559h-3.87a0.57,0.57,0,0,0-.58.559v3.767a0.57,0.57,0,0,0,.58.56h3.87a0.57,0.57,0,0,0,.58-0.56v-3.767Zm6.71,0a0.57,0.57,0,0,0-.58-0.559H1461a0.57,0.57,0,0,0-.58.559v3.767a0.57,0.57,0,0,0,.58.56h3.88a0.561,0.561,0,0,0,.57-0.56v-3.767h0Zm-14,6h-3.87a0.57,0.57,0,0,0-.58.56v3.769a0.57,0.57,0,0,0,.58.559h3.87a0.57,0.57,0,0,0,.58-0.559v-3.769A0.571,0.571,0,0,0,1451.45,402.112Zm6.71,0h-3.87a0.57,0.57,0,0,0-.58.56v3.769a0.57,0.57,0,0,0,.58.559h3.87a0.57,0.57,0,0,0,.58-0.559v-3.769A0.571,0.571,0,0,0,1458.16,402.112Zm6.71,0H1461a0.57,0.57,0,0,0-.58.56v3.769a0.57,0.57,0,0,0,.58.559h3.88a0.561,0.561,0,0,0,.57-0.559v-3.769A0.571,0.571,0,0,0,1464.87,402.112Z" transform="translate(-1447 -389)"/>
</svg>
