<svg xmlns="http://www.w3.org/2000/svg" width="24.34" height="18" viewBox="0 0 24.34 18">
  <path d="M1507.79,406.685H1491.5a1.194,1.194,0,1,1,0-2.387h16.28A1.194,1.194,0,1,1,1507.79,406.685Zm0-7.492H1491.5a1.194,1.194,0,1,1,0-2.387h16.28A1.194,1.194,0,1,1,1507.79,399.193Zm0-7.491H1491.5a1.194,1.194,0,1,1,0-2.387h16.28A1.194,1.194,0,1,1,1507.79,391.7Zm-21.52-2.7a1.6,1.6,0,1,1-1.63,1.6A1.619,1.619,0,0,1,1486.27,389Zm0,7.4a1.6,1.6,0,1,1-1.63,1.6A1.619,1.619,0,0,1,1486.27,396.4Zm0,7.4a1.6,1.6,0,1,1-1.63,1.6A1.619,1.619,0,0,1,1486.27,403.8Z" transform="translate(-1484.66 -389)"/>
</svg>
