<svg xmlns="http://www.w3.org/2000/svg" width="31" height="32" viewBox="0 0 31 32">
  <path d="M425.11,1165.72l-3.038-.22-1.147-2.85a1.532,1.532,0,0,0-2.85,0l-1.147,2.85-3.038.22a1.512,1.512,0,0,0-1.348,1.07,1.572,1.572,0,0,0,.473,1.67l2.326,1.98-0.726,2.99a1.548,1.548,0,0,0,1.49,1.92,1.554,1.554,0,0,0,.81-0.23l2.585-1.63,2.585,1.63a1.554,1.554,0,0,0,.81.23,1.548,1.548,0,0,0,1.49-1.92l-0.726-2.99,2.326-1.98a1.562,1.562,0,0,0,.473-1.67A1.52,1.52,0,0,0,425.11,1165.72Zm-2.85,3.82a0.794,0.794,0,0,0-.259.8l0.816,3.35-2.9-1.82a0.749,0.749,0,0,0-.836,0l-2.9,1.83,0.823-3.36a0.813,0.813,0,0,0-.259-0.81l-2.611-2.23,3.4-.25a0.78,0.78,0,0,0,.68-0.49l1.283-3.19,1.289,3.19a0.785,0.785,0,0,0,.68.5l3.4,0.25Zm11.674-.03a1.065,1.065,0,0,1-.007-1.24l0.551-.8a2.684,2.684,0,0,0,.415-2.15,2.65,2.65,0,0,0-1.322-1.74l-0.842-.46a1.066,1.066,0,0,1-.544-1.11l0.162-.96a2.707,2.707,0,0,0-.551-2.12,2.615,2.615,0,0,0-1.937-.99l-0.965-.03a1.052,1.052,0,0,1-.966-0.77l-0.265-.93a2.625,2.625,0,0,0-3.583-1.71l-0.881.38a1.043,1.043,0,0,1-1.2-.27l-0.642-.72a2.646,2.646,0,0,0-1.963-.89,2.618,2.618,0,0,0-2,.92l-0.622.74a1.064,1.064,0,0,1-1.2.29l-0.888-.37a2.687,2.687,0,0,0-1-.2,2.641,2.641,0,0,0-2.546,1.96l-0.253.93a1.057,1.057,0,0,1-.952.78l-0.952.06a2.613,2.613,0,0,0-1.925,1.01,2.708,2.708,0,0,0-.518,2.13l0.175,0.95a1.074,1.074,0,0,1-.525,1.13l-0.835.47a2.687,2.687,0,0,0-.849,3.91l0.564,0.78a1.065,1.065,0,0,1,.006,1.24l-0.551.8a2.683,2.683,0,0,0-.414,2.15,2.652,2.652,0,0,0,1.321,1.74l0.843,0.46a1.069,1.069,0,0,1,.544,1.11l-0.162.96a2.711,2.711,0,0,0,.55,2.12,2.618,2.618,0,0,0,1.937.99l0.959,0.04a1.053,1.053,0,0,1,.966.77l0.265,0.93a2.656,2.656,0,0,0,2.54,1.92h0a2.68,2.68,0,0,0,1.043-.21l0.881-.38a1.043,1.043,0,0,1,1.2.27l0.642,0.72a2.626,2.626,0,0,0,3.958-.04l0.622-.74a1.064,1.064,0,0,1,1.2-.29l0.888,0.37a2.687,2.687,0,0,0,1,.2,2.641,2.641,0,0,0,2.546-1.96l0.253-.93a1.057,1.057,0,0,1,.952-0.78l0.952-.05a2.625,2.625,0,0,0,1.925-1.02,2.689,2.689,0,0,0,.518-2.13l-0.175-.95a1.059,1.059,0,0,1,.525-1.12l0.836-.47a2.658,2.658,0,0,0,1.3-1.76,2.7,2.7,0,0,0-.447-2.15Zm-0.538,2.59a1.055,1.055,0,0,1-.518.7l-0.836.47a2.681,2.681,0,0,0-1.315,2.82l0.175,0.95a1.055,1.055,0,0,1-.207.85,1.044,1.044,0,0,1-.765.4l-0.952.06a2.641,2.641,0,0,0-2.4,1.95l-0.253.93a1.053,1.053,0,0,1-1.017.79,1.125,1.125,0,0,1-.4-0.08l-0.887-.37a2.687,2.687,0,0,0-1-.2,2.654,2.654,0,0,0-2,.92l-0.628.73a1.048,1.048,0,0,1-.8.36,1.022,1.022,0,0,1-.784-0.35l-0.641-.72a2.647,2.647,0,0,0-3.013-.68l-0.881.38a1.01,1.01,0,0,1-.414.09,1.063,1.063,0,0,1-1.011-.77l-0.265-.93a2.646,2.646,0,0,0-2.423-1.92l-0.959-.04a1.023,1.023,0,0,1-.771-0.4,1.04,1.04,0,0,1-.22-0.84l0.155-.96a2.664,2.664,0,0,0-1.36-2.79l-0.843-.46a1.02,1.02,0,0,1-.524-0.7,1.038,1.038,0,0,1,.162-0.85l0.55-.8a2.675,2.675,0,0,0-.026-3.11l-0.563-.78a1.044,1.044,0,0,1-.175-0.86,1.058,1.058,0,0,1,.518-0.7l0.836-.47a2.681,2.681,0,0,0,1.315-2.82l-0.162-.94a1.055,1.055,0,0,1,.207-0.85,1.044,1.044,0,0,1,.765-0.4l0.952-.06a2.651,2.651,0,0,0,2.4-1.96l0.253-.93a1.053,1.053,0,0,1,1.017-.79,1.115,1.115,0,0,1,.4.08l0.888,0.37a2.687,2.687,0,0,0,1,.2,2.62,2.62,0,0,0,2-.92l0.628-.72a1.024,1.024,0,0,1,.8-0.37,1.057,1.057,0,0,1,.784.35l0.641,0.73a2.612,2.612,0,0,0,3.013.67l0.881-.38a1.01,1.01,0,0,1,.414-0.09,1.063,1.063,0,0,1,1.011.77l0.265,0.93a2.669,2.669,0,0,0,2.424,1.93l0.958,0.04a1.013,1.013,0,0,1,.771.39,1.037,1.037,0,0,1,.22.84l-0.155.96a2.685,2.685,0,0,0,1.36,2.8l0.843,0.45a1.081,1.081,0,0,1,.369,1.56l-0.551.79a2.692,2.692,0,0,0,.026,3.12l0.564,0.78A1.129,1.129,0,0,1,433.4,1172.1Z" transform="translate(-404 -1153)"/>
</svg>
