<svg xmlns="http://www.w3.org/2000/svg" width="15.625" height="15" viewBox="0 0 15.625 15">
  <path d="M860.228,1271.11l-4.3-.41a0.738,0.738,0,0,1-.617-0.46l-1.542-3.78a0.736,0.736,0,0,0-1.369,0l-1.529,3.78a0.724,0.724,0,0,1-.617.46l-4.3.41a0.754,0.754,0,0,0-.42,1.31l3.244,2.88a0.737,0.737,0,0,1,.234.73l-0.974,4.04a0.743,0.743,0,0,0,1.1.82l3.589-2.13a0.726,0.726,0,0,1,.752,0l3.589,2.13a0.741,0.741,0,0,0,1.1-.82l-0.962-4.04a0.74,0.74,0,0,1,.234-0.73l3.244-2.88A0.764,0.764,0,0,0,860.228,1271.11Z" transform="translate(-845.281 -1266)"/>
</svg>
