<svg xmlns="http://www.w3.org/2000/svg" width="39" height="25" viewBox="0 0 39 25">
  <defs>
    <style>
      .cls-1 {
        fill: #bababa;
        fill-rule: evenodd;
      }
    </style>
  </defs>
  <path id="Pot-icon" class="cls-1" d="M706.947,273.806h-2.036a2.682,2.682,0,0,1,.355-1.134l1.116-1.9a1.228,1.228,0,0,0,.013-1.218,1.185,1.185,0,0,0-.62-0.525,1.238,1.238,0,0,0-.156-0.536l-0.089-.122c-0.8-.871-2.81-2.9-4.056-2.9h-7.246A4.127,4.127,0,0,0,690.184,262h-2.052a4.128,4.128,0,0,0-4.044,3.472h-6.562c-1.246,0-3.251,2.029-4.055,2.9l-0.09.122a1.244,1.244,0,0,0-.156.536,1.183,1.183,0,0,0-.62.525,1.233,1.233,0,0,0,.013,1.218l1.116,1.9a2.7,2.7,0,0,1,.356,1.135h-2.037a2.084,2.084,0,0,0,0,4.167h2.052V282.7c0,0.037,0,.074.006,0.111,0,0.01-.006.018-0.006,0.028s0.009,0.03.01,0.046a4.263,4.263,0,0,0,4.214,4.12h22.343a4.271,4.271,0,0,0,4.223-4.306v-4.722h2.052A2.083,2.083,0,0,0,706.947,273.806Zm-18.815-10.417h2.052a2.75,2.75,0,0,1,2.651,2.083h-7.354A2.75,2.75,0,0,1,688.132,263.389Zm-10.606,3.473h23.948a7.963,7.963,0,0,1,2.7,2.083H674.829A7.973,7.973,0,0,1,677.526,266.862Zm-6.158,9.027a0.691,0.691,0,0,1,.685-0.694h2.052v1.388h-2.052A0.69,0.69,0,0,1,671.368,275.889Zm32.158,6.805a2.889,2.889,0,0,1-2.854,2.917H678.328a2.86,2.86,0,0,1-2.722-2.083h6.026a0.695,0.695,0,0,0,0-1.389h-6.158V280.75h4.1a0.695,0.695,0,0,0,0-1.389h-4.1v-1.389h2.737a0.695,0.695,0,0,0,0-1.389h-2.737v-2.777h-0.016a4.1,4.1,0,0,0-.549-1.847l-0.956-1.626h31.094l-0.956,1.627a4.1,4.1,0,0,0-.548,1.846h-0.017v8.888Zm3.421-6.111H704.9V275.2h2.052A0.694,0.694,0,0,1,706.947,276.583Z" transform="translate(-670 -262)"/>
</svg>
