<svg xmlns="http://www.w3.org/2000/svg" width="23" height="32" viewBox="0 0 23 32">
  <defs>
    <style>
      .cls-1 {
        fill: #bababa;
        fill-rule: evenodd;
      }
    </style>
  </defs>
  <path id="Chair-icon" class="cls-1" d="M1150.39,268.611h-1.1a1.626,1.626,0,0,0-.52,3.164v2.331a1.136,1.136,0,0,1-.73,1.065,1.609,1.609,0,0,0-1.5-1.03h-4.43v-1.175h3.33a1.626,1.626,0,0,0,1.62-1.625v-10.5a3.828,3.828,0,0,0-3.81-3.836h-5.5a3.828,3.828,0,0,0-3.81,3.836v10.5a1.626,1.626,0,0,0,1.62,1.625h3.33v1.175h-4.43a1.609,1.609,0,0,0-1.5,1.03,1.136,1.136,0,0,1-.73-1.065v-2.331a1.626,1.626,0,0,0-.52-3.164h-1.1a1.625,1.625,0,0,0,0,3.249h0.59v2.246a2.169,2.169,0,0,0,1.71,2.13,1.631,1.631,0,0,0,1.55,1.153h4.43v1.693a1.625,1.625,0,0,0,1.1,1.539v5.131h-4.43a1.625,1.625,0,1,0,1.5,1.037h6.88a1.613,1.613,0,1,0,1.5-1.037h-4.43v-5.131a1.625,1.625,0,0,0,1.1-1.539v-1.693h4.43a1.631,1.631,0,0,0,1.55-1.153,2.169,2.169,0,0,0,1.71-2.13V271.86h0.59A1.625,1.625,0,0,0,1150.39,268.611Zm-20.36,1.625a0.585,0.585,0,0,1,.58-0.588h1.1a0.588,0.588,0,1,1,0,1.175h-1.1A0.584,0.584,0,0,1,1130.03,270.236Zm6.11,17.14a0.585,0.585,0,1,1-.58-0.587A0.584,0.584,0,0,1,1136.14,287.376Zm9.3,0.587a0.587,0.587,0,1,1,.59-0.587A0.584,0.584,0,0,1,1145.44,287.963Zm-10.47-16.622v-10.5a2.8,2.8,0,0,1,2.78-2.8h5.5a2.8,2.8,0,0,1,2.78,2.8v10.5a0.586,0.586,0,0,1-.59.588h-9.88A0.586,0.586,0,0,1,1134.97,271.341Zm4.95,1.625h1.16v1.175h-1.16v-1.175Zm1.16,6.116a0.58,0.58,0,1,1-1.16,0v-1.693h1.16v1.693Zm5.46-2.73h-12.08a0.588,0.588,0,1,1,0-1.175h12.08A0.588,0.588,0,1,1,1146.54,276.352Zm3.85-5.529h-1.1a0.588,0.588,0,1,1,0-1.175h1.1A0.588,0.588,0,0,1,1150.39,270.823Z" transform="translate(-1129 -257)"/>
</svg>
