<svg xmlns="http://www.w3.org/2000/svg" width="30" height="28" viewBox="0 0 30 28">
  <defs>
    <style>
      .cls-1 {
        fill: #bababa;
        fill-rule: evenodd;
      }
    </style>
  </defs>
  <path id="Tv-icon" class="cls-1" d="M1062.61,259h-25.22a2.377,2.377,0,0,0-2.39,2.36v18.876a2.377,2.377,0,0,0,2.39,2.36h9.26v3.461h-3.35a0.472,0.472,0,1,0,0,.943h13.4a0.472,0.472,0,1,0,0-.943h-3.35V282.6h9.26a2.377,2.377,0,0,0,2.39-2.36V261.36A2.377,2.377,0,0,0,1062.61,259Zm-10.22,27.057h-4.78V282.6h4.78v3.461Zm11.65-5.821a1.424,1.424,0,0,1-1.43,1.416h-25.22a1.424,1.424,0,0,1-1.43-1.416V278.82h28.08v1.416Zm0-2.359h-28.08V261.36a1.424,1.424,0,0,1,1.43-1.416h25.22a1.424,1.424,0,0,1,1.43,1.416v16.517Zm-1.43-16.99h-25.22a0.48,0.48,0,0,0-.48.473v15.1a0.48,0.48,0,0,0,.48.472h20.75a0.472,0.472,0,1,0,0-.944h-20.27V261.832h24.26v14.157h-2.08a0.472,0.472,0,1,0,0,.944h2.56a0.48,0.48,0,0,0,.48-0.472v-15.1A0.48,0.48,0,0,0,1062.61,260.887Z" transform="translate(-1035 -259)"/>
</svg>
