<svg xmlns="http://www.w3.org/2000/svg" width="32" height="27.969" viewBox="0 0 32 27.969">
  <defs>
    <style>
      .cls-1 {
        fill: #bababa;
        fill-rule: evenodd;
      }
    </style>
  </defs>
  <path id="Heel-icon" class="cls-1" d="M795,270.851a7.819,7.819,0,0,0-.523-8.44,13.184,13.184,0,0,0-3.185-3.3,0.656,0.656,0,0,0-.773.027,32.5,32.5,0,0,0-6.712,8.064,33.315,33.315,0,0,0-4.063,8.828c-0.385,1.622-1.276,2.41-2.723,2.41h0a5.71,5.71,0,0,1-2.144-.48,0.656,0.656,0,0,0-.5-0.026l-1.1.382a1.888,1.888,0,0,0-.056-0.837,2.3,2.3,0,0,0-2.292-1.518,3.076,3.076,0,0,0-.854.122,2.857,2.857,0,0,0-1.555,1.081,2.06,2.06,0,0,0-.321,1.769,1.981,1.981,0,0,0,.635.948c-1.341.478-2.549,0.917-3.108,1.139a2.547,2.547,0,0,0,.519,4.945c0.359,0.117,3.375,1.032,9.862,1.032,0.815,0,1.664-.015,2.521-0.044,4.983-.169,5.7-2.688,6.454-5.355,0.112-.394.228-0.8,0.36-1.215,0.657-2.059,2.754-4.369,4.053-5.657v10.884a0.639,0.639,0,0,0,.645.634h2.462a0.652,0.652,0,0,0,.461-0.19,0.632,0.632,0,0,0,.184-0.457c0-.063-0.128-6.382,0-8.917A19.431,19.431,0,0,1,795,270.851Zm-3.035,5.769c-0.106,2.12-.042,6.663-0.013,8.358H790.8V273.245a0.635,0.635,0,0,0-.38-0.578,0.651,0.651,0,0,0-.691.1c-0.18.156-4.424,3.856-5.5,7.236-0.138.432-.256,0.85-0.371,1.255-0.759,2.675-1.217,4.29-5.256,4.428-0.843.029-1.676,0.043-2.477,0.043-6.526,0-9.442-.963-9.469-0.972s-0.042-.013-0.063-0.018-1.3-.33-1.3-1.233a1.456,1.456,0,0,1,.932-1.308c0.724-.289,2.623-0.97,4.453-1.616,0.131,0.052.448,0.178,0.48,0.192a16.535,16.535,0,0,0,5.876,1.283,7.574,7.574,0,0,0,3-.557,5.351,5.351,0,0,0,3.006-3.377,43.9,43.9,0,0,1,4.663-9.461,20.84,20.84,0,0,1,5.358-6.039c0.115,0.154.229,0.314,0.339,0.481a6.551,6.551,0,0,1,.457,7.164c0,0.009-.009.017-0.013,0.026A20.382,20.382,0,0,0,791.969,276.62Zm-17.392,2.6a6.95,6.95,0,0,0,2.448.5h0a3.926,3.926,0,0,0,3.979-3.39c1.031-4.331,5.626-12.2,9.942-15.874a12.754,12.754,0,0,1,1.291,1.2,22.58,22.58,0,0,0-5.62,6.336,45.264,45.264,0,0,0-4.8,9.747,4.068,4.068,0,0,1-2.3,2.612c-2.281.987-5.455,0.128-7-.4Zm-4.983-1.331a1.59,1.59,0,0,1,.856-0.582,1.764,1.764,0,0,1,.489-0.071,1.039,1.039,0,0,1,1.056.607,1.189,1.189,0,0,1-1,1.275,1.717,1.717,0,0,1-.489.071,1.037,1.037,0,0,1-1.056-.608A0.827,0.827,0,0,1,769.594,277.885Z" transform="translate(-764 -259.031)"/>
</svg>
