<svg xmlns="http://www.w3.org/2000/svg" width="36" height="27" viewBox="0 0 36 27">
  <defs>
    <style>
      .cls-1 {
        fill: #bababa;
        fill-rule: evenodd;
      }
    </style>
  </defs>
  <path id="Laptop-icon" class="cls-1" d="M1337.42,282.119h-0.66V261.6a2.532,2.532,0,0,0-2.45-2.6h-28.62a2.532,2.532,0,0,0-2.45,2.6v20.518h-0.66a0.6,0.6,0,0,0-.58.619v1.322a1.889,1.889,0,0,0,1.83,1.94h32.34a1.889,1.889,0,0,0,1.83-1.94v-1.322A0.6,0.6,0,0,0,1337.42,282.119ZM1304.41,261.6a1.328,1.328,0,0,1,1.28-1.362h28.62a1.328,1.328,0,0,1,1.28,1.362v20.518h-31.18V261.6Zm32.42,22.459a0.679,0.679,0,0,1-.66.7h-32.34a0.679,0.679,0,0,1-.66-0.7v-0.7h13.14V283.4a0.6,0.6,0,0,0,.58.619h6.22a0.6,0.6,0,0,0,.58-0.619v-0.041h13.14v0.7Zm-3.15-22.418h-27.36a0.6,0.6,0,0,0-.59.62V280.1a0.6,0.6,0,0,0,.59.619h27.36a0.6,0.6,0,0,0,.59-0.619V262.262A0.6,0.6,0,0,0,1333.68,261.642Zm-0.58,17.835h-26.2v-16.6h26.2v16.6Z" transform="translate(-1302 -259)"/>
</svg>
