<svg xmlns="http://www.w3.org/2000/svg" width="26" height="34"  viewBox="0 0 31 40">
  <path d="M1417.99,133.577l-2.22-25.792a1.073,1.073,0,0,0-1.06-1.006h-4.56a7.651,7.651,0,1,0-15.3,0h-4.56a1.066,1.066,0,0,0-1.06,1.006l-2.22,25.792c0,0.033-.01.065-0.01,0.1a5.592,5.592,0,0,0,5.81,5.325h19.38a5.592,5.592,0,0,0,5.81-5.325A0.327,0.327,0,0,0,1417.99,133.577Zm-15.49-32.368a5.6,5.6,0,0,1,5.51,5.57h-11.02A5.6,5.6,0,0,1,1402.5,101.209Zm9.69,35.582h-19.38a3.44,3.44,0,0,1-3.67-3.067L1391.26,109h3.58v3.354a1.071,1.071,0,1,0,2.14,0V109h11.03v3.354a1.071,1.071,0,1,0,2.14,0V109h3.58l2.13,24.728A3.447,3.447,0,0,1,1412.19,136.791Z" transform="translate(-1387 -99)"/>
</svg>
