<svg xmlns="http://www.w3.org/2000/svg" width="80" height="100" viewBox="0 0 140 175">
  <path d="M1029,703.672L1018.92,590.18a4.321,4.321,0,0,0-4.36-3.948H993.311a34.311,34.311,0,0,0-68.622,0H903.435a4.369,4.369,0,0,0-4.352,3.948L889,703.672v0.4c0,12.642,11.642,22.93,25.933,22.93h88.137c14.29,0,25.93-10.288,25.93-22.93v-0.4ZM959,560.694a25.625,25.625,0,0,1,25.606,25.538H933.394A25.625,25.625,0,0,1,959,560.694Zm44.07,157.576H914.933c-9.43,0-17.12-6.267-17.228-14.055l9.72-109.289h17.264v15.25a4.353,4.353,0,0,0,8.705,0v-15.25h51.212v15.25a4.353,4.353,0,0,0,8.705,0v-15.25h17.269l9.72,109.325C1020.19,712,1012.5,718.27,1003.07,718.27ZM977.1,642.489L951.42,668.135l-10.482-10.469a4.358,4.358,0,1,0-6.166,6.159l13.565,13.548a4.368,4.368,0,0,0,3.083,1.267,4.434,4.434,0,0,0,3.083-1.267l28.761-28.726a4.346,4.346,0,0,0,0-6.158A4.426,4.426,0,0,0,977.1,642.489Z" transform="translate(-889 -552)"/>
</svg>
