<svg class="svg-icon" width="20" height="20" viewBox="0 0 1024 1024" xmlns="http://www.w3.org/2000/svg"><path d="M800 256H224a30.08 30.08 0 0 0-32 32 30.08 30.08 0 0 0 32 32h32v576a64 64 0 0 0 64 64h384a64 64 0 0 0 64-64V320h32a30.08 30.08 0 0 0 32-32 30.08 30.08 0 0 0-32-32zM448 799.36a33.28 33.28 0 0 1-64 0v-384a33.28 33.28 0 0 1 64 0zm192 0a33.28 33.28 0 0 1-64 0v-384a33.28 33.28 0 0 1 64 0zM800 128H640V96a32.64 32.64 0 0 0-32-32H416a32 32 0 0 0-32 32v32H224a30.08 30.08 0 0 0-32 32 30.08 30.08 0 0 0 32 32h576a30.08 30.08 0 0 0 32-32 30.08 30.08 0 0 0-32-32z"/></svg>
