<svg xmlns="http://www.w3.org/2000/svg" width="28" height="26.97" viewBox="0 0 28 26.97">
  <path d="M431.614,1075.96a3.866,3.866,0,0,0-2.49-.93H423.08v-4.35a4.553,4.553,0,0,0-1.593-3.93,4.967,4.967,0,0,0-4.077-.49,0.68,0.68,0,0,0-.483.65v4.87a4.806,4.806,0,0,1-2.26,4.01,8.829,8.829,0,0,1-2.387,1.2l-0.167.04a1.415,1.415,0,0,0-1.224-.7H406.42a1.424,1.424,0,0,0-1.42,1.42v13.1a1.424,1.424,0,0,0,1.42,1.42h4.48a1.428,1.428,0,0,0,1.093-.51,3.921,3.921,0,0,0,2.84,1.24h11.95c2.64,0,4.325-1.38,4.624-3.79l1.546-9.58A4.034,4.034,0,0,0,431.614,1075.96Zm-20.679,14.89a0.036,0.036,0,0,1-.041.04H406.42a0.035,0.035,0,0,1-.04-0.04v-13.1a0.035,0.035,0,0,1,.04-0.04h4.48a0.035,0.035,0,0,1,.04.04v13.1h0Zm20.644-11.43-1.541,9.59a0.054,0.054,0,0,1-.006.03c-0.213,1.72-1.305,2.59-3.255,2.59H414.828a2.526,2.526,0,0,1-2.479-2.12,0.748,0.748,0,0,0-.029-0.12v-11l0.3-.06c0.011,0,.017-0.01.028-0.01a9.977,9.977,0,0,0,2.795-1.38,6.2,6.2,0,0,0,2.87-5.16v-4.32a3.2,3.2,0,0,1,2.363.4,3.322,3.322,0,0,1,1.024,2.82v5.03a0.691,0.691,0,0,0,.69.69h6.734a2.466,2.466,0,0,1,1.592.61A2.617,2.617,0,0,1,431.579,1079.42Z" transform="translate(-405 -1066.03)"/>
</svg>
