<svg xmlns="http://www.w3.org/2000/svg" width="29.031" height="30" viewBox="0 0 29.031 30">
  <path d="M428.75,979.592a0.722,0.722,0,0,0,.72-0.724v-2.284A1.581,1.581,0,0,0,427.9,975H412.679a0.717,0.717,0,0,0-.509.212l-5.959,6a0.725,0.725,0,0,0-.211.512v21.7a1.579,1.579,0,0,0,1.573,1.58H427.9a1.578,1.578,0,0,0,1.572-1.58V992.361a0.719,0.719,0,1,0-1.438,0v11.059a0.133,0.133,0,0,1-.134.13H407.573a0.133,0.133,0,0,1-.134-0.13V982.447h4.386a1.579,1.579,0,0,0,1.573-1.583v-4.416h14.5a0.135,0.135,0,0,1,.134.136v2.284A0.721,0.721,0,0,0,428.75,979.592Zm-16.791,1.272a0.135,0.135,0,0,1-.134.135h-3.369l3.5-3.527v3.392Zm22.329,0.019-0.847-.852a2.424,2.424,0,0,0-3.442,0l-6.719,6.763H411.626a0.724,0.724,0,0,0,0,1.448h10.215l-4.329,4.358h-5.886a0.724,0.724,0,0,0,0,1.448h4.447l-0.012.012a0.729,0.729,0,0,0-.184.318l-1.111,4.029h-3.14a0.724,0.724,0,0,0,0,1.448h3.687s0.157-.018.18-0.024l4.541-1.268a0.731,0.731,0,0,0,.316-0.186l13.938-14.03A2.463,2.463,0,0,0,434.288,980.883ZM416.346,998.09l0.587-2.128,1.528,1.537Zm3.5-1.249-2.254-2.269,11.5-11.581,2.254,2.269Zm13.429-13.518-0.906.913-2.254-2.269,0.906-.912a0.992,0.992,0,0,1,1.408,0l0.846,0.852A1.007,1.007,0,0,1,433.27,983.323Z" transform="translate(-406 -975)"/>
</svg>
