<svg xmlns="http://www.w3.org/2000/svg" width="42" height="42" viewBox="0 0 42 42">
  <defs>
    <style>
      .cls-1 {
        fill: #eee;
        fill-rule: evenodd;
      }
    </style>
  </defs>
  <path id="Arrow" class="cls-1" d="M1544,2962a21,21,0,1,0-21-21A21.017,21.017,0,0,0,1544,2962Zm0-39.04a18.04,18.04,0,1,1-18.04,18.04A18.07,18.07,0,0,1,1544,2922.96Zm-4.84,28.52a1.446,1.446,0,0,0,1.04.44,1.5,1.5,0,0,0,1.05-.44l9.55-9.54a1.5,1.5,0,0,0,0-2.1l-9.55-9.54a1.481,1.481,0,0,0-2.09,2.1l8.49,8.49-8.49,8.5A1.473,1.473,0,0,0,1539.16,2951.48Z" transform="translate(-1523 -2920)"/>
</svg>
